<?xml version="1.0" encoding="iso-8859-1"?>
<!-- Generator: Adobe Illustrator 19.0.0, SVG Export Plug-In . SVG Version: 6.00 Build 0)  -->
<svg version="1.1" id="Capa_1" xmlns="http://www.w3.org/2000/svg" xmlns:xlink="http://www.w3.org/1999/xlink" x="0px" y="0px"
	 viewBox="0 0 480 480" style="enable-background:new 0 0 480 480;" xml:space="preserve">
<path style="fill:#F490C0;" d="M96,354.88V460h24h48v-54.08c46.164,18.774,97.836,18.774,144,0V460h24h48V354.88
	c70.143-79.448,62.599-200.716-16.849-270.858C299.98,24.719,200.71,19.795,128,72.16V68c0-26.51-21.49-48-48-48H32v48
	c0,26.51,21.49,48,48,48h4.16c-13.948,19.26-24.152,40.971-30.08,64H8v64h40.72C52.074,285.101,68.663,324.006,96,354.88z M240,132
	c53.019,0,96,42.981,96,96s-42.981,96-96,96s-96-42.981-96-96S186.981,132,240,132z M112,148c4.418,0,8,3.582,8,8s-3.582,8-8,8
	c-4.418,0-8-3.582-8-8S107.582,148,112,148z"/>
<circle style="fill:#E0E0E2;" cx="112" cy="156" r="8"/>
<path style="fill:#82BE55;" d="M240,324c53.019,0,96-42.981,96-96s-42.981-96-96-96s-96,42.981-96,96S186.981,324,240,324z M240,228
	c-13.255,0-24-10.745-24-24s10.745-24,24-24c13.255,0,24,10.745,24,24c0-13.255-10.745-24-24-24c-13.255,0-24,10.745-24,24
	S226.745,228,240,228c13.255,0,24,10.745,24,24c0,13.255-10.745,24-24,24c-13.255,0-24-10.745-24-24c0,13.255,10.745,24,24,24
	c13.255,0,24-10.745,24-24C264,238.745,253.255,228,240,228z"/>
<g>
	<circle style="fill:#231F20;" cx="112" cy="156" r="16"/>
	<path style="fill:#231F20;" d="M240,124c-57.438,0-104,46.562-104,104s46.562,104,104,104s104-46.562,104-104
		C343.934,170.59,297.41,124.066,240,124z M240,316c-48.601,0-88-39.399-88-88s39.399-88,88-88s88,39.399,88,88
		C327.943,276.577,288.577,315.943,240,316z"/>
	<path style="fill:#231F20;" d="M240,188c8.837,0,16,7.163,16,16c0,4.418,3.582,8,8,8s8-3.582,8-8
		c-0.055-14.547-9.915-27.227-24-30.864V164c0-4.418-3.582-8-8-8s-8,3.582-8,8v9.136c-17.081,4.396-27.364,21.807-22.968,38.888
		C212.668,226.151,225.413,236.018,240,236c8.837,0,16,7.163,16,16c0,8.837-7.163,16-16,16c-8.837,0-16-7.163-16-16
		c0-4.418-3.582-8-8-8s-8,3.582-8,8c0.055,14.547,9.915,27.227,24,30.864V292c0,4.418,3.582,8,8,8s8-3.582,8-8v-9.136
		c17.081-4.396,27.364-21.807,22.968-38.888C267.332,229.85,254.587,219.982,240,220c-8.837,0-16-7.163-16-16S231.163,188,240,188
		L240,188z"/>
	<path style="fill:#231F20;" d="M464,145.344c0.02-5.149,2.227-10.047,6.072-13.472c6.389-6.296,9.968-14.902,9.928-23.872
		c0-4.418-3.582-8-8-8s-8,3.582-8,8c-0.02,5.149-2.227,10.047-6.072,13.472c-13.184,13.109-13.245,34.424-0.136,47.608
		c0.045,0.046,0.091,0.091,0.136,0.136c7.434,6.56,8.142,17.905,1.581,25.339c-0.494,0.559-1.022,1.088-1.581,1.581
		c-6.388,6.293-9.967,14.897-9.928,23.864h-8.224c-0.24-6.4-0.744-12.88-1.6-19.328C423.142,91.288,322.281,14.801,212.897,29.835
		c-27.61,3.795-54.121,13.32-77.833,27.965C130.115,31.276,106.982,12.035,80,12H32c-4.418,0-8,3.582-8,8v48
		c0.033,26.981,19.27,50.116,45.792,55.072C60.329,138.311,52.997,154.773,48,172H8c-4.418,0-8,3.582-8,8v64c0,4.418,3.582,8,8,8
		h33.48c4.587,39.144,20.789,76.018,46.52,105.872V460c0,4.418,3.582,8,8,8h72c4.418,0,8-3.582,8-8v-42.528
		c41.521,13.984,86.479,13.984,128,0V460c0,4.418,3.582,8,8,8h72c4.418,0,8-3.582,8-8V357.864
		c29.112-34.128,45.919-77.043,47.728-121.864H456c4.418,0,8-3.582,8-8c-0.037-1.42-0.46-2.803-1.224-4
		c0.764-1.197,1.187-2.58,1.224-4c0.017-5.143,2.226-10.034,6.072-13.448c13.182-13.105,13.244-34.415,0.139-47.597
		c-0.046-0.047-0.093-0.093-0.139-0.139C466.227,155.391,464.02,150.493,464,145.344L464,145.344z M378,349.6
		c-1.288,1.461-1.999,3.341-2,5.288V452h-32v-24c0-4.418-3.582-8-8-8s-8,3.582-8,8v24h-8v-46.08
		c-0.002-4.418-3.585-7.999-8.003-7.997c-1.039,0-2.068,0.203-3.029,0.597c-44.24,17.88-93.696,17.88-137.936,0
		c-4.089-1.675-8.761,0.283-10.435,4.371c-0.394,0.961-0.596,1.99-0.597,3.029V452h-32v-24c0-4.418-3.582-8-8-8s-8,3.582-8,8v24h-8
		v-97.12c0.001-1.95-0.71-3.833-2-5.296c-26.256-29.54-42.164-66.836-45.312-106.232c-0.338-4.163-3.823-7.366-8-7.352H16v-48h38.08
		c3.653,0.002,6.843-2.471,7.752-6.008c5.657-22.065,15.428-42.863,28.8-61.304c2.589-3.58,1.786-8.581-1.794-11.17
		c-1.361-0.984-2.998-1.515-4.678-1.518H80c-22.08-0.026-39.974-17.92-40-40V28h40c22.08,0.026,39.974,17.92,40,40v4.16
		c0.001,4.418,3.584,7.999,8.002,7.998c1.683-0.001,3.322-0.532,4.686-1.518c82.432-59.337,197.359-40.614,256.696,41.818
		C439.538,190.133,434.813,285.239,378,349.6L378,349.6z"/>
</g>
<g>
</g>
<g>
</g>
<g>
</g>
<g>
</g>
<g>
</g>
<g>
</g>
<g>
</g>
<g>
</g>
<g>
</g>
<g>
</g>
<g>
</g>
<g>
</g>
<g>
</g>
<g>
</g>
<g>
</g>
</svg>
